<svg id="ic_email" xmlns="http://www.w3.org/2000/svg" width="22.999" height="16.428" viewBox="0 0 22.999 16.428">
  <path id="Path_50" data-name="Path 50" d="M15.829,13.74l6.527-5.982v11.21a.81.81,0,0,1-.051.252ZM10.39,14.858l.577.53a2.255,2.255,0,0,0,3.065,0l.577-.53,5.823,4.927H4.567Zm2.532-.682a.607.607,0,0,1-.844,0L3.858,6.643H21.141ZM2.643,18.967V7.758L9.17,13.74l-6.476,5.48a.81.81,0,0,1-.051-.252ZM21.538,5H3.461A2.464,2.464,0,0,0,1,7.461V18.967a2.463,2.463,0,0,0,2.461,2.461H21.538A2.463,2.463,0,0,0,24,18.967V7.461A2.463,2.463,0,0,0,21.538,5Z" transform="translate(-1 -5)" fill="#56276c"/>
</svg>
