<svg id="ic_insta" xmlns="http://www.w3.org/2000/svg" width="23" height="23" viewBox="0 0 23 23">
  <path id="Path_51" data-name="Path 51" d="M19.167,0H3.833A3.833,3.833,0,0,0,0,3.833V19.167A3.833,3.833,0,0,0,3.833,23H19.167A3.833,3.833,0,0,0,23,19.167V3.833A3.833,3.833,0,0,0,19.167,0Zm1.917,19.167a1.917,1.917,0,0,1-1.917,1.917H3.833a1.917,1.917,0,0,1-1.917-1.917V3.833A1.917,1.917,0,0,1,3.833,1.917H19.167a1.917,1.917,0,0,1,1.917,1.917Z" fill="#56276c"/>
  <path id="Path_52" data-name="Path 52" d="M11.75,6a5.75,5.75,0,1,0,5.75,5.75A5.75,5.75,0,0,0,11.75,6Zm0,9.583a3.833,3.833,0,1,1,3.833-3.833A3.833,3.833,0,0,1,11.75,15.583Z" transform="translate(-0.25 -0.25)" fill="#56276c"/>
  <circle id="Ellipse_1" data-name="Ellipse 1" cx="1.5" cy="1.5" r="1.5" transform="translate(16 4)" fill="#56276c"/>
</svg>
