<svg id="ic_linkedin" xmlns="http://www.w3.org/2000/svg" width="22.999" height="23.145" viewBox="0 0 22.999 23.145">
  <path id="Exclusion_1" data-name="Exclusion 1" d="M21.3,23.145H1.7A1.681,1.681,0,0,1,0,21.488V1.658A1.681,1.681,0,0,1,1.7,0H21.3A1.681,1.681,0,0,1,23,1.658v19.83A1.681,1.681,0,0,1,21.3,23.145ZM14.265,11.421c1.455,0,1.76,1.285,1.76,2.364v5.591H19.5V13.382a5.083,5.083,0,0,0-1.142-3.556A3.76,3.76,0,0,0,15.5,8.679,3.469,3.469,0,0,0,12.369,10.4V8.923H8.895c.045.972,0,10.357,0,10.452h3.474V13.54a2.3,2.3,0,0,1,.114-.848A1.9,1.9,0,0,1,14.265,11.421ZM3.5,8.923V19.375H6.972V8.923Zm1.76-5.038A1.811,1.811,0,1,0,5.213,7.5h.022a1.811,1.811,0,1,0,.023-3.612Z" fill="#56276c"/>
</svg>
