<svg id="ic_tel" xmlns="http://www.w3.org/2000/svg" width="22" height="22" viewBox="0 0 22 22">
  <path id="Path_47" data-name="Path 47" d="M515.053,194.353a5.5,5.5,0,0,1,4.476,4.474.907.907,0,0,0,.9.759.8.8,0,0,0,.145-.013.008.008,0,0,0,.007,0,.908.908,0,0,0,.746-1.053,7.311,7.311,0,0,0-5.97-5.963h0a.912.912,0,0,0-.3,1.8Z" transform="translate(-503.227 -188.663)" fill="#56276c"/>
  <path id="Path_48" data-name="Path 48" d="M36.707,86.6a2.408,2.408,0,0,0-1.751-.794,2.47,2.47,0,0,0-1.759.783l-1.27,1.269-.092-.047-.065-.031c-.136-.069-.293-.147-.422-.228a15.266,15.266,0,0,1-3.642-3.317,8.9,8.9,0,0,1-1.087-1.664c.319-.3.616-.6.9-.888l.19-.192c.063-.065.127-.129.192-.194a2.35,2.35,0,0,0,0-3.551l-1.235-1.233c-.071-.071-.143-.143-.212-.214s-.141-.143-.21-.212l-.1-.1c-.243-.248-.5-.5-.75-.738a2.436,2.436,0,0,0-1.733-.754,2.525,2.525,0,0,0-1.755.754s0,0,0,0L20.351,76.8a3.6,3.6,0,0,0-1.07,2.286v0a8.075,8.075,0,0,0,.6,3.482,19.78,19.78,0,0,0,3.51,5.853,21.661,21.661,0,0,0,7.185,5.621h0a11.287,11.287,0,0,0,4.093,1.2h.018c.092,0,.188.009.288.009A3.7,3.7,0,0,0,37.8,94.046l.011-.011a.221.221,0,0,0,.022-.025,10.072,10.072,0,0,1,.768-.792c.2-.19.4-.384.6-.593a2.554,2.554,0,0,0,.773-1.78,2.488,2.488,0,0,0-.788-1.76Zm-.246,6.216a1.869,1.869,0,0,1-1.474.613c-.058,0-.123,0-.19-.009A9.618,9.618,0,0,1,31.379,92.4a19.669,19.669,0,0,1-6.585-5.146h0a18.027,18.027,0,0,1-3.2-5.315,6.208,6.208,0,0,1-.491-2.7,1.746,1.746,0,0,1,.54-1.149l1.536-1.535a.725.725,0,0,1,.48-.236.7.7,0,0,1,.462.239l.007.007c.266.25.525.513.8.79l.009.009c.132.136.284.292.438.442l1.233,1.231c.359.359.359.611,0,.97-.13.129-.261.261-.391.395l-.092.094c-.346.35-.672.68-1.027.995a.1.1,0,0,0-.016.016l-.022.022a1.206,1.206,0,0,0-.3,1.336c0,.013.009.025.013.036h0a.079.079,0,0,0,.009.02,10.208,10.208,0,0,0,1.509,2.456s0,0,0,0A16.988,16.988,0,0,0,30.385,89.1a6.624,6.624,0,0,0,.583.319c.138.069.295.149.424.228a.166.166,0,0,0,.027.016l.007,0c.013.007.027.016.042.022a1.274,1.274,0,0,0,.585.145,1.23,1.23,0,0,0,.9-.406L34.5,87.883a.732.732,0,0,1,.469-.245.688.688,0,0,1,.442.243l0,0,2.494,2.491c.246.245.413.535-.02.99l0,0c-.136.147-.281.288-.435.437-.033.031-.067.065-.1.1a10.516,10.516,0,0,0-.893.917Z" transform="translate(-19.263 -73.259)" fill="#56276c"/>
  <path id="Path_49" data-name="Path 49" d="M533.066,28.408a11.844,11.844,0,0,0-9.663-9.654.911.911,0,0,0-.3,1.8,10.025,10.025,0,0,1,8.167,8.165.907.907,0,0,0,.9.759h.007a.741.741,0,0,0,.138-.013.008.008,0,0,0,.007,0,.911.911,0,0,0,.748-1.051Z" transform="translate(-511.08 -18.742)" fill="#56276c"/>
</svg>
