<svg id="ic_whats" xmlns="http://www.w3.org/2000/svg" width="22.999" height="22.999" viewBox="0 0 22.999 22.999">
  <path id="Path_45" data-name="Path 45" d="M12.5,1A11.483,11.483,0,0,0,2.447,18.063L1.03,23.022a.767.767,0,0,0,.948.948l4.959-1.417A11.5,11.5,0,1,0,12.5,1Zm0,21.466a9.95,9.95,0,0,1-5.071-1.4.767.767,0,0,0-.6-.077L2.883,22.118,4.01,18.173a.767.767,0,0,0-.077-.6,9.959,9.959,0,1,1,8.567,4.9Z" transform="translate(-1 -1)" fill="#56276c"/>
  <path id="Path_46" data-name="Path 46" d="M20.258,16.538c-.024-.021-2.714-2-3.626-1.845-.46.081-.708.378-1.122.871-.072.085-.132.153-.182.214-.132-.05-.294-.117-.479-.207a5.664,5.664,0,0,1-2.615-2.616c-.09-.185-.157-.347-.207-.478.061-.054.133-.114.215-.183.492-.412.789-.662.87-1.122.159-.907-1.825-3.6-1.845-3.626a1.317,1.317,0,0,0-1-.537c-.95,0-3.261,2.935-3.261,3.622,0,.119.041,2.967,3.6,6.585,3.6,3.543,6.453,3.587,6.573,3.587.687,0,3.626-2.315,3.626-3.265a1.316,1.316,0,0,0-.544-1Zm-3.2,2.715c-.54-.067-2.7-.5-5.375-3.124-2.65-2.7-3.074-4.865-3.135-5.383a13.746,13.746,0,0,1,1.677-2.033,19.033,19.033,0,0,1,1.3,2.179c-.085.077-.192.164-.268.23a4.482,4.482,0,0,0-.721.685l-.187.261.055.317a5.349,5.349,0,0,0,.451,1.243,7.207,7.207,0,0,0,3.326,3.325,5.325,5.325,0,0,0,1.243.452l.317.054.26-.186a4.51,4.51,0,0,0,.686-.721c.067-.08.153-.185.23-.268A18.959,18.959,0,0,1,19.1,17.577a13.8,13.8,0,0,1-2.035,1.675Z" transform="translate(-2.402 -2.402)" fill="#56276c"/>
</svg>
