<svg id="img_especializacao" xmlns="http://www.w3.org/2000/svg" width="48" height="44" viewBox="0 0 48 44">
  <path id="Path_42" data-name="Path 42" d="M50.82,31.326A8.34,8.34,0,0,0,46.4,24a1.73,1.73,0,0,0,.127-.623V5.831A1.826,1.826,0,0,0,44.7,4H4.641A1.826,1.826,0,0,0,2.82,5.831V37.718a1.826,1.826,0,0,0,1.821,1.832H36.034v6.575a1.834,1.834,0,0,0,.819,1.538,1.812,1.812,0,0,0,1.73.147l3.933-1.685,3.915,1.722a1.812,1.812,0,0,0,1.73-.147,1.834,1.834,0,0,0,.819-1.538V36.509A8.4,8.4,0,0,0,50.82,31.326Zm-8.3,4.689a4.679,4.679,0,0,1-4.338-2.9,4.727,4.727,0,0,1,1.011-5.138A4.66,4.66,0,0,1,44.3,26.963a4.711,4.711,0,0,1-1.781,9.052ZM6.462,7.663H42.881V22.938h-.364A8.3,8.3,0,0,0,35.2,27.315a8.393,8.393,0,0,0,.359,8.553H6.425Zm36.747,34.8a1.811,1.811,0,0,0-1.439,0l-2.112.916V39.146a7.806,7.806,0,0,0,5.663,0v4.139Zm-25.857-29.3a1.826,1.826,0,0,1,1.821-1.832H30.1a1.832,1.832,0,0,1,0,3.663H19.172a1.826,1.826,0,0,1-1.821-1.832ZM33.43,22.315H16.04a1.832,1.832,0,0,1,0-3.663H33.43a1.832,1.832,0,0,1,0,3.663ZM31.445,27.26a1.839,1.839,0,0,1,0,2.582L29.26,32.022a1.774,1.774,0,0,1-2.568,0l-.874-.879-.892.879a1.813,1.813,0,0,1-2.568,0l-.892-.879-.892.879a1.813,1.813,0,0,1-2.568,0,1.839,1.839,0,0,1,0-2.582l2.185-2.179a1.814,1.814,0,0,1,2.568,0l.892.879.874-.879a1.816,1.816,0,0,1,1.293-.549h0a1.816,1.816,0,0,1,1.293.549l.874.879.874-.879a1.814,1.814,0,0,1,2.586.055Z" transform="translate(-2.82 -4)"/>
</svg>
