<svg id="img_consultas" xmlns="http://www.w3.org/2000/svg" width="53.745" height="44.361" viewBox="0 0 53.745 44.361">
  <path id="Path_39" data-name="Path 39" d="M19.743,965.34a1.861,1.861,0,0,0-1.6,1.8v11.393H6.6a1.86,1.86,0,0,0-1.6,1.8v20.988a1.866,1.866,0,0,0,1.791,1.8h4.777v4.8a1.791,1.791,0,0,0,2.8,1.48l9.088-6.277H36.65a1.866,1.866,0,0,0,1.792-1.8v-5.641l9.648,7.646a1.791,1.791,0,0,0,2.893-1.406v-7.2h5.972a1.866,1.866,0,0,0,1.792-1.8V967.139a1.866,1.866,0,0,0-1.792-1.8Zm1.978,3.6H55.162v22.187H49.19a1.866,1.866,0,0,0-1.792,1.8v5.284L38.945,991.5a1.8,1.8,0,0,0-1.1-.375H21.721ZM8.583,982.13h9.555v10.794a1.866,1.866,0,0,0,1.791,1.8H34.858v4.8H22.915a1.783,1.783,0,0,0-1.008.3l-6.755,4.666v-3.167a1.866,1.866,0,0,0-1.791-1.8H8.583Z" transform="translate(-5 -965.34)"/>
</svg>
