<svg xmlns="http://www.w3.org/2000/svg" width="61.424" height="40.969" viewBox="0 0 61.424 40.969">
  <path id="img_pessoalidade" d="M24.985,27a1.706,1.706,0,0,0-1.253.693l-9.411,12.8a1.706,1.706,0,0,0,.293,2.293L23.172,50a5.112,5.112,0,0,0,2.773,9.411,4.961,4.961,0,0,0,1.173-.16,4.271,4.271,0,0,0,3.946,2.719h.08a4.308,4.308,0,0,0,4.185,3.412,4.141,4.141,0,0,0,1.146-.187,4.287,4.287,0,0,0,3.972,2.746,4.215,4.215,0,0,0,2.319-.72,5.828,5.828,0,0,0,2.8.72,5,5,0,0,0,3.519-1.573,5.534,5.534,0,0,0,1.333-2,4.407,4.407,0,0,0,1.12.16,4.71,4.71,0,0,0,4.212-2.666,4.315,4.315,0,0,0,.906.107,4.707,4.707,0,0,0,4.292-2.879,4.849,4.849,0,0,0,6.8-4.639q0-.013,0-.027A5.085,5.085,0,0,0,65.4,50.4v-.027l-.08-.053L49.191,37.58a1.706,1.706,0,0,0-2.133.027s-1.233.993-2.666,2c-.716.5-1.491,1-2.133,1.36s-1.266.547-1.12.533a3.342,3.342,0,0,1-1.44-.16,1.606,1.606,0,0,1-.613-.427l6.372-7.065a1.706,1.706,0,0,0,.933-.773,6.049,6.049,0,0,1,3.439-.96c5.466,0,9-.009,13.809-1.466L71.4,41.206l-3.892,3.226a1.714,1.714,0,0,0,2.186,2.639l5.119-4.265a1.706,1.706,0,0,0,.293-2.319l-9.411-12.8a1.657,1.657,0,0,0-1.946-.613C58.675,28.812,55.811,28.7,49.831,28.7a9.952,9.952,0,0,0-5.119,1.413A9.952,9.952,0,0,0,39.594,28.7c-5.98,0-8.844.11-13.916-1.626a1.706,1.706,0,0,0-.693-.08Zm.8,3.652c4.814,1.458,8.344,1.466,13.809,1.466a6.424,6.424,0,0,1,2.426.427L35.755,39.5a1.706,1.706,0,0,0-.347,1.68,5.4,5.4,0,0,0,3.012,3.306,6.351,6.351,0,0,0,3.039.4,5.767,5.767,0,0,0,2.479-.933c.8-.453,1.627-1,2.4-1.546.952-.669,1.239-.927,1.76-1.333l15.169,12q.039.028.08.053a3.407,3.407,0,0,1,.986,1.36,1.422,1.422,0,0,1-.4,1.146A1.509,1.509,0,0,1,62.867,56a8.323,8.323,0,0,1-.826-.187c.224.145-.171-.112-.507-.373S60.74,54.8,60.2,54.375c-1.077-.85-2.46-1.942-3.839-3.039L50.9,46.991a1.707,1.707,0,0,0-2.133,2.666L54.23,54c1.333,1.061,2.665,2.117,3.732,2.959a1.707,1.707,0,0,0-.027.24,1.3,1.3,0,0,1-1.28,1.36,1.159,1.159,0,0,1-.693-.24c.151.107-.118-.082-.347-.267s-.54-.447-.906-.746c-.734-.6-1.7-1.362-2.639-2.133-1.88-1.54-3.706-3.066-3.706-3.066a1.714,1.714,0,1,0-2.186,2.639s1.85,1.523,3.732,3.066c.941.771,1.9,1.531,2.639,2.133.089.073.132.12.213.187a1.259,1.259,0,0,1-1.226.986,1.159,1.159,0,0,1-.693-.24c-.011-.009-3.777-2.77-5.892-4.505a1.714,1.714,0,1,0-2.186,2.639c1.5,1.232,3.207,2.5,4.505,3.466v.347a1.9,1.9,0,0,1-.587,1.12,1.989,1.989,0,0,1-1.12.587,1.962,1.962,0,0,1-.933-.107,4.153,4.153,0,0,0,.08-.746,4.292,4.292,0,0,0-4.265-4.265A4.141,4.141,0,0,0,39.3,59.6a4.287,4.287,0,0,0-3.972-2.746h-.08a4.308,4.308,0,0,0-4.185-3.412h-.08a5.179,5.179,0,0,0-3.092-3.866l-9.864-8.344Zm.16,21.941A1.706,1.706,0,1,1,24.238,54.3,1.681,1.681,0,0,1,25.944,52.589Zm5.119,4.265a.853.853,0,1,1-.853.853A.828.828,0,0,1,31.063,56.855Zm4.265,3.412a.853.853,0,1,1-.853.853A.828.828,0,0,1,35.328,60.267Zm5.119,2.559a.853.853,0,1,1-.853.853A.828.828,0,0,1,40.447,62.826Z" transform="translate(-14.006 -26.976)"/>
</svg>
