<svg id="Camada_1" data-name="Camada 1" xmlns="http://www.w3.org/2000/svg" viewBox="0 0 140.76 120.42"><defs><style>.cls-1{fill:#fff;}.cls-2{fill:#56276c;}</style></defs><g id="Logo"><g id="Sociedade_de_Advogados" data-name="Sociedade de Advogados"><path class="cls-1" d="M14.48,119.12c-.78-.29-1.06-.71-1.06-1.29,0-.8.63-1.27,1.58-1.27a3.74,3.74,0,0,1,1.12.18l.36.11s.05,0,0,.08l-.06.17a.05.05,0,0,1-.08,0L16,117a3.28,3.28,0,0,0-1-.16c-.75,0-1.24.37-1.24,1,0,.36.13.74.85,1l1.14.44c.63.23,1.08.57,1.08,1.23,0,.88-.77,1.39-1.78,1.39a3.7,3.7,0,0,1-1.41-.26l-.25-.09a.06.06,0,0,1,0-.08l.07-.18s0,0,.08,0l.24.1a3.42,3.42,0,0,0,1.31.23c.79,0,1.45-.39,1.45-1.07,0-.5-.42-.78-.85-.94Z" transform="translate(-1.28 -1.47)"/><path class="cls-1" d="M22.92,119.22c0,1.66-.81,2.67-2.14,2.67s-2.14-1-2.14-2.67.81-2.66,2.14-2.66S22.92,117.58,22.92,119.22Zm-4,0c0,1.48.66,2.35,1.81,2.35s1.81-.87,1.81-2.35-.67-2.35-1.81-2.35S19,117.75,19,119.22Z" transform="translate(-1.28 -1.47)"/><path class="cls-1" d="M28,121.69a2.66,2.66,0,0,1-1.08.2c-1.34,0-2.15-1-2.15-2.67s.81-2.66,2.15-2.66a2.6,2.6,0,0,1,1.07.19l.31.11a.07.07,0,0,1,0,.09l-.07.17s-.05,0-.08,0l-.32-.11a2.43,2.43,0,0,0-.95-.17c-1.16,0-1.82.87-1.82,2.35s.66,2.35,1.82,2.35a2.47,2.47,0,0,0,1-.17l.29-.11a.08.08,0,0,1,.09,0l.06.18s0,.07,0,.08Z" transform="translate(-1.28 -1.47)"/><path class="cls-1" d="M30.75,121.76a.06.06,0,0,1-.06.06h-.21a.05.05,0,0,1-.06-.06V116.7s0-.07.06-.07h.21a.07.07,0,0,1,.06.07Z" transform="translate(-1.28 -1.47)"/><path class="cls-1" d="M35.88,119a.05.05,0,0,1,.06.06v.18s0,.07-.06.07H33.4v2.2h3a.06.06,0,0,1,.06.06v.19a.06.06,0,0,1-.06.06H33.13a.05.05,0,0,1-.06-.06V116.7s0-.07.06-.07h3.24a.05.05,0,0,1,.05.07l-.05.18a.07.07,0,0,1-.07.05H33.4V119Z" transform="translate(-1.28 -1.47)"/><path class="cls-1" d="M40.21,116.63c1.32,0,2.13,1,2.13,2.59s-.81,2.6-2.13,2.6H38.57a.05.05,0,0,1-.06-.06V116.7s0-.07.06-.07Zm-1.37,4.88h1.37c1.14,0,1.8-.85,1.8-2.29s-.66-2.29-1.8-2.29H38.84Z" transform="translate(-1.28 -1.47)"/><path class="cls-1" d="M44.81,120.34l-.59,1.43a.09.09,0,0,1-.08,0h-.22c-.05,0-.06,0-.05-.07l1.68-4a8,8,0,0,0,.37-1.07.07.07,0,0,1,.07-.06h.21s.07,0,.07.06c.09.32.24.72.37,1.07l1.69,4s0,.07,0,.07h-.22a.08.08,0,0,1-.07,0l-.59-1.43Zm2.45-.31-.85-2a6,6,0,0,1-.27-.82c0-.06-.07-.06-.08,0a6,6,0,0,1-.27.82l-.85,2Z" transform="translate(-1.28 -1.47)"/><path class="cls-1" d="M52,116.63c1.32,0,2.13,1,2.13,2.59s-.81,2.6-2.13,2.6H50.37a.05.05,0,0,1-.06-.06V116.7s0-.07.06-.07Zm-1.37,4.88H52c1.14,0,1.8-.85,1.8-2.29s-.66-2.29-1.8-2.29H50.64Z" transform="translate(-1.28 -1.47)"/><path class="cls-1" d="M59,119a.05.05,0,0,1,.06.06v.18s0,.07-.06.07H56.53v2.2h3a.06.06,0,0,1,.06.06v.19a.05.05,0,0,1-.06.06H56.27a.05.05,0,0,1-.06-.06V116.7s0-.07.06-.07h3.24s.06,0,0,.07l0,.18a.07.07,0,0,1-.07.05H56.53V119Z" transform="translate(-1.28 -1.47)"/><path class="cls-1" d="M65.92,116.63c1.32,0,2.13,1,2.13,2.59s-.81,2.6-2.13,2.6H64.28a.05.05,0,0,1-.06-.06V116.7s0-.07.06-.07Zm-1.37,4.88h1.37c1.14,0,1.8-.85,1.8-2.29s-.66-2.29-1.8-2.29H64.55Z" transform="translate(-1.28 -1.47)"/><path class="cls-1" d="M72.92,119a.05.05,0,0,1,.06.06v.18s0,.07-.06.07H70.44v2.2h3a.06.06,0,0,1,.06.06v.19a.05.05,0,0,1-.06.06H70.18s-.07,0-.07-.06V116.7a.07.07,0,0,1,.07-.07h3.24a0,0,0,0,1,0,.07l0,.18a.07.07,0,0,1-.07.05H70.44V119Z" transform="translate(-1.28 -1.47)"/><path class="cls-1" d="M78.72,120.34l-.59,1.43a.09.09,0,0,1-.08,0h-.22s-.06,0,0-.07l1.67-4a9.82,9.82,0,0,0,.38-1.07.06.06,0,0,1,.06-.06h.22a.07.07,0,0,1,.07.06c.09.32.23.72.37,1.07l1.68,4s0,.07,0,.07H82a.09.09,0,0,1-.08,0l-.59-1.43Zm2.45-.31-.85-2a4.71,4.71,0,0,1-.26-.82c0-.06-.08-.06-.09,0a6,6,0,0,1-.27.82l-.85,2Z" transform="translate(-1.28 -1.47)"/><path class="cls-1" d="M85.92,116.63c1.32,0,2.13,1,2.13,2.59s-.81,2.6-2.13,2.6H84.28a.05.05,0,0,1-.06-.06V116.7s0-.07.06-.07Zm-1.37,4.88h1.37c1.14,0,1.8-.85,1.8-2.29s-.66-2.29-1.8-2.29H84.55Z" transform="translate(-1.28 -1.47)"/><path class="cls-1" d="M92.27,120.66a7.78,7.78,0,0,0-.35,1.1.07.07,0,0,1-.07.06h-.21a.06.06,0,0,1-.06-.06,9.33,9.33,0,0,0-.35-1.1l-1.68-4s0-.07,0-.07h.22a.08.08,0,0,1,.08.05l1.59,3.78a3.63,3.63,0,0,1,.22.75c0,.05.08.05.09,0a3.2,3.2,0,0,1,.23-.75l1.59-3.78a.08.08,0,0,1,.08-.05h.21s.06,0,0,.07Z" transform="translate(-1.28 -1.47)"/><path class="cls-1" d="M99.76,119.22c0,1.66-.81,2.67-2.14,2.67s-2.14-1-2.14-2.67.81-2.66,2.14-2.66S99.76,117.58,99.76,119.22Zm-4,0c0,1.48.66,2.35,1.81,2.35s1.81-.87,1.81-2.35-.67-2.35-1.81-2.35S95.81,117.75,95.81,119.22Z" transform="translate(-1.28 -1.47)"/><path class="cls-1" d="M105.4,121.42s0,.06,0,.06l-.07,0-.5.19a2.68,2.68,0,0,1-1.08.19c-1.34,0-2.14-1-2.14-2.67s.8-2.66,2.14-2.66a2.77,2.77,0,0,1,1.09.2l.3.11s0,0,0,.08l-.06.17a.07.07,0,0,1-.09,0l-.29-.11a2.47,2.47,0,0,0-1-.18c-1.15,0-1.81.88-1.81,2.35s.66,2.35,1.81,2.35a2.72,2.72,0,0,0,1-.15l.41-.16v-1.61H104s-.06,0,0-.06l0-.18s0,0,.07,0h1.28a.05.05,0,0,1,.06.06Z" transform="translate(-1.28 -1.47)"/><path class="cls-1" d="M108.21,120.34l-.59,1.43a.09.09,0,0,1-.08,0h-.22s-.06,0,0-.07l1.67-4a8,8,0,0,0,.37-1.07.07.07,0,0,1,.07-.06h.22a.06.06,0,0,1,.06.06c.09.32.24.72.37,1.07l1.69,4s0,.07,0,.07h-.22a.08.08,0,0,1-.07,0l-.59-1.43Zm2.45-.31-.85-2a6,6,0,0,1-.27-.82c0-.06-.07-.06-.08,0a6,6,0,0,1-.27.82l-.85,2Z" transform="translate(-1.28 -1.47)"/><path class="cls-1" d="M115.41,116.63c1.32,0,2.13,1,2.13,2.59s-.81,2.6-2.13,2.6h-1.64a.05.05,0,0,1-.06-.06V116.7s0-.07.06-.07ZM114,121.51h1.37c1.14,0,1.8-.85,1.8-2.29s-.66-2.29-1.8-2.29H114Z" transform="translate(-1.28 -1.47)"/><path class="cls-1" d="M123.63,119.22c0,1.66-.81,2.67-2.14,2.67s-2.14-1-2.14-2.67.81-2.66,2.14-2.66S123.63,117.58,123.63,119.22Zm-3.95,0c0,1.48.66,2.35,1.81,2.35s1.81-.87,1.81-2.35-.67-2.35-1.81-2.35S119.68,117.75,119.68,119.22Z" transform="translate(-1.28 -1.47)"/><path class="cls-1" d="M126.59,119.12c-.78-.29-1.06-.71-1.06-1.29,0-.8.63-1.27,1.58-1.27a3.74,3.74,0,0,1,1.12.18l.36.11s0,0,0,.08l-.06.17a.05.05,0,0,1-.08,0l-.34-.11a3.28,3.28,0,0,0-1-.16c-.75,0-1.24.37-1.24,1,0,.36.13.74.85,1l1.14.44c.63.23,1.08.57,1.08,1.23,0,.88-.77,1.39-1.78,1.39a3.75,3.75,0,0,1-1.42-.26l-.25-.09a.07.07,0,0,1,0-.08l.07-.18s0,0,.08,0l.24.1a3.42,3.42,0,0,0,1.31.23c.79,0,1.45-.39,1.45-1.07,0-.5-.42-.78-.85-.94Z" transform="translate(-1.28 -1.47)"/></g><g id="Barra"><rect class="cls-1" y="110.38" width="140.76" height="0.71"/></g><g id="Nunes_Faggion" data-name="Nunes Faggion"><path class="cls-1" d="M12.45,108.51a.13.13,0,0,1-.15.14h-.59a.2.2,0,0,1-.19-.1,18.73,18.73,0,0,0-1-1.76l-5.8-8.12a6.31,6.31,0,0,1-.56-1c0-.13-.23-.09-.19.07A9.13,9.13,0,0,1,4,99.07v9.44a.13.13,0,0,1-.14.14H3.38a.13.13,0,0,1-.14-.14v-12a.13.13,0,0,1,.14-.14H4a.18.18,0,0,1,.18.1,11,11,0,0,0,1,1.72L11,106.27a6,6,0,0,1,.58,1c.05.15.22.09.18-.07a9.09,9.09,0,0,1-.09-1.32V96.47a.13.13,0,0,1,.14-.14h.49a.13.13,0,0,1,.15.14Z" transform="translate(-1.28 -1.47)"/><path class="cls-1" d="M24.94,103.87c0,3.12-1.64,5-4.48,5S16,107,16,103.87v-7.4a.13.13,0,0,1,.14-.14h.49a.13.13,0,0,1,.14.14v7.4c0,2.65,1.34,4.21,3.7,4.21s3.72-1.56,3.72-4.21v-7.4a.13.13,0,0,1,.15-.14h.47a.13.13,0,0,1,.14.14Z" transform="translate(-1.28 -1.47)"/><path class="cls-1" d="M37.71,108.51a.13.13,0,0,1-.15.14H37a.17.17,0,0,1-.18-.1c-.26-.51-.69-1.21-1-1.76l-5.8-8.12a6.14,6.14,0,0,1-.55-1c-.06-.13-.24-.09-.2.07a9.13,9.13,0,0,1,.1,1.32v9.44a.13.13,0,0,1-.14.14h-.5c-.1,0-.15-.05-.15-.14v-12c0-.09.05-.14.15-.14h.61a.18.18,0,0,1,.18.1,11,11,0,0,0,1,1.72l5.79,8.12a5.4,5.4,0,0,1,.58,1c0,.15.22.09.18-.07a9.09,9.09,0,0,1-.09-1.32V96.47a.13.13,0,0,1,.14-.14h.49a.13.13,0,0,1,.15.14Z" transform="translate(-1.28 -1.47)"/><path class="cls-1" d="M48.11,102a.13.13,0,0,1,.14.14v.43c0,.1,0,.15-.14.15h-5.9v5.25h7.18a.13.13,0,0,1,.14.15v.43a.13.13,0,0,1-.14.14H41.57a.13.13,0,0,1-.14-.14v-12a.13.13,0,0,1,.14-.14h7.71c.09,0,.15,0,.11.16l-.11.41a.15.15,0,0,1-.16.13H42.21V102Z" transform="translate(-1.28 -1.47)"/><path class="cls-1" d="M54.54,102.25c-1.84-.71-2.51-1.7-2.51-3.09,0-1.9,1.48-3,3.75-3a8.87,8.87,0,0,1,2.68.43l.84.27a.12.12,0,0,1,.09.18l-.14.41a.12.12,0,0,1-.18.09l-.81-.27a8.18,8.18,0,0,0-2.48-.37c-1.78,0-3,.88-3,2.27,0,.87.31,1.77,2,2.4l2.73,1c1.5.56,2.56,1.37,2.56,2.94,0,2.08-1.84,3.31-4.24,3.31a8.77,8.77,0,0,1-3.36-.64l-.59-.21a.13.13,0,0,1-.07-.18l.14-.44a.15.15,0,0,1,.2-.09l.58.24a8.26,8.26,0,0,0,3.1.56c1.88,0,3.45-.94,3.45-2.55,0-1.19-1-1.86-2-2.26Z" transform="translate(-1.28 -1.47)"/><path class="cls-1" d="M74.34,102.32a.13.13,0,0,1,.15.14v.44a.13.13,0,0,1-.15.14H68.42v5.47a.13.13,0,0,1-.14.14h-.49a.13.13,0,0,1-.14-.14v-12a.13.13,0,0,1,.14-.14h7.56c.1,0,.15,0,.11.16l-.12.41a.16.16,0,0,1-.17.13H68.42v5.29Z" transform="translate(-1.28 -1.47)"/><path class="cls-1" d="M78.55,105.13l-1.4,3.42a.2.2,0,0,1-.19.1h-.52c-.11,0-.14-.07-.11-.16l4-9.49a22.8,22.8,0,0,0,.89-2.55c0-.09.07-.12.16-.12h.5c.09,0,.15,0,.17.12.21.78.56,1.72.88,2.55l4,9.49c0,.09,0,.16-.11.16H86.3a.17.17,0,0,1-.18-.1l-1.41-3.42Zm5.83-.74-2-4.8a11.71,11.71,0,0,1-.63-2c0-.12-.18-.12-.2,0a14.3,14.3,0,0,1-.65,2l-2,4.8Z" transform="translate(-1.28 -1.47)"/><path class="cls-1" d="M97.89,107.7a.15.15,0,0,1-.11.16l-.16.07-1.19.44a6.33,6.33,0,0,1-2.57.47c-3.17,0-5.09-2.42-5.09-6.36s1.92-6.33,5.09-6.33a6.86,6.86,0,0,1,2.6.46l.71.28a.13.13,0,0,1,.07.18l-.14.41a.14.14,0,0,1-.2.09l-.71-.25a5.82,5.82,0,0,0-2.33-.43c-2.72,0-4.29,2.09-4.29,5.59s1.57,5.6,4.29,5.6a6.85,6.85,0,0,0,2.3-.38l1-.36v-3.83H94.51c-.09,0-.14-.05-.1-.16l.12-.42a.14.14,0,0,1,.16-.12h3c.1,0,.15,0,.15.14Z" transform="translate(-1.28 -1.47)"/><path class="cls-1" d="M109.86,107.7a.15.15,0,0,1-.11.16l-.16.07-1.19.44a6.29,6.29,0,0,1-2.56.47c-3.18,0-5.09-2.42-5.09-6.36s1.91-6.33,5.09-6.33a6.93,6.93,0,0,1,2.6.46l.7.28a.13.13,0,0,1,.07.18l-.14.41a.14.14,0,0,1-.2.09l-.71-.25a5.8,5.8,0,0,0-2.32-.43c-2.73,0-4.3,2.09-4.3,5.59s1.57,5.6,4.3,5.6a6.79,6.79,0,0,0,2.29-.38l1-.36v-3.83h-2.61c-.09,0-.15-.05-.11-.16l.12-.42c0-.09.08-.12.17-.12h3a.13.13,0,0,1,.14.14Z" transform="translate(-1.28 -1.47)"/><path class="cls-1" d="M114.11,108.51a.13.13,0,0,1-.15.14h-.48c-.1,0-.15-.05-.15-.14v-12c0-.09,0-.14.15-.14H114a.13.13,0,0,1,.15.14Z" transform="translate(-1.28 -1.47)"/><path class="cls-1" d="M127.39,102.48c0,3.94-1.91,6.36-5.09,6.36s-5.09-2.42-5.09-6.36,1.93-6.33,5.09-6.33S127.39,98.58,127.39,102.48Zm-9.38,0c0,3.52,1.57,5.6,4.29,5.6s4.32-2.08,4.32-5.6-1.59-5.59-4.32-5.59S118,99,118,102.48Z" transform="translate(-1.28 -1.47)"/><path class="cls-1" d="M139.73,108.51a.13.13,0,0,1-.15.14H139a.17.17,0,0,1-.18-.1c-.26-.51-.69-1.21-1.05-1.76L132,98.67a6.31,6.31,0,0,1-.56-1c-.05-.13-.23-.09-.19.07a9.13,9.13,0,0,1,.1,1.32v9.44a.13.13,0,0,1-.14.14h-.51a.13.13,0,0,1-.14-.14v-12a.13.13,0,0,1,.14-.14h.62a.18.18,0,0,1,.18.1,11,11,0,0,0,1,1.72l5.79,8.12a6,6,0,0,1,.58,1c0,.15.22.09.18-.07a9.09,9.09,0,0,1-.09-1.32V96.47a.13.13,0,0,1,.14-.14h.49a.13.13,0,0,1,.15.14Z" transform="translate(-1.28 -1.47)"/></g><rect id="Forma" class="cls-2" x="37.36" width="66.05" height="86.95"/><g id="MS"><g id="S"><path class="cls-1" d="M98.11,78c0-9.83-17.69-7.86-17.69-20.14,0-4.91,4.42-9.34,10.81-9.34,5.41,0,9.34,3.93,9.34,6.39a3.44,3.44,0,1,1-3.44-3.44,5,5,0,0,1,1.23.25A10.72,10.72,0,0,0,91.23,49c-4.42,0-7.37,3-7.37,5.9,0,9.83,17.69,7.86,17.69,20.14,0,5.41-4.42,9.83-11.3,9.83-7.37,0-11.3-6.63-11.3-6.63v-.69c.19.29,4.08,6.83,11.3,6.83C95.16,84.36,98.11,81.41,98.11,78Z" transform="translate(-1.28 -1.47)"/></g><g id="M"><path class="cls-1" d="M66.89,65.93l-3.39,7L52.44,50.09H42.62v.49h3.93V84H42.62v.49H51V84H47V51.07L60.3,78.59h1L67.21,66.3Z" transform="translate(-1.28 -1.47)"/><path class="cls-1" d="M55.23,65.93l3.4,7L69.68,50.09h9.83v.49H75.58V84h3.93v.49H71.16V84h3.93V51.07L61.82,78.59h-1L54.91,66.3Z" transform="translate(-1.28 -1.47)"/><rect class="cls-1" x="44.71" y="49.11" width="1.51" height="33.41"/><rect class="cls-1" x="73.43" y="49.11" width="1.51" height="33.41"/></g></g></g></svg>