<svg id="Camada_1" data-name="Camada 1" xmlns="http://www.w3.org/2000/svg" viewBox="0 0 95.37 81.59"><defs><style>.cls-1{fill:#666;}.cls-2{fill:#fff;}.cls-3{fill:#56276c;}</style></defs><g id="Logo"><g id="Sociedade_de_Advogados" data-name="Sociedade de Advogados"><path class="cls-1" d="M10.26,83.92c-.53-.2-.72-.49-.72-.88,0-.54.42-.86,1.07-.86a2.61,2.61,0,0,1,.76.12l.24.08s0,0,0,.05l0,.12a0,0,0,0,1,0,0l-.24-.07a2.33,2.33,0,0,0-.7-.11c-.51,0-.84.25-.84.65,0,.24.08.5.57.68l.78.29c.43.16.73.39.73.84s-.52.94-1.21.94a2.42,2.42,0,0,1-1-.18l-.16-.06s0,0,0,0l0-.12s0,0,.05,0l.17.07a2.27,2.27,0,0,0,.88.16c.54,0,1-.27,1-.73s-.28-.53-.57-.64Z" transform="translate(-1.32 -4.21)"/><path class="cls-1" d="M16,84c0,1.12-.54,1.81-1.45,1.81S13.07,85.1,13.07,84s.55-1.8,1.45-1.8S16,82.87,16,84ZM13.3,84c0,1,.45,1.6,1.22,1.6S15.75,85,15.75,84s-.45-1.59-1.23-1.59S13.3,83,13.3,84Z" transform="translate(-1.32 -4.21)"/><path class="cls-1" d="M19.39,85.65a1.67,1.67,0,0,1-.73.14c-.91,0-1.46-.69-1.46-1.81s.55-1.8,1.46-1.8a1.62,1.62,0,0,1,.72.13l.21.07a0,0,0,0,1,0,.06l-.05.12a0,0,0,0,1-.05,0l-.22-.08a1.49,1.49,0,0,0-.64-.11c-.79,0-1.23.59-1.23,1.59s.44,1.6,1.23,1.6a1.65,1.65,0,0,0,.66-.12l.2-.07a0,0,0,0,1,.06,0l0,.12a0,0,0,0,1,0,0Z" transform="translate(-1.32 -4.21)"/><path class="cls-1" d="M21.28,85.7a0,0,0,0,1,0,0H21.1s0,0,0,0V82.27a0,0,0,0,1,0,0h.14a0,0,0,0,1,0,0Z" transform="translate(-1.32 -4.21)"/><path class="cls-1" d="M24.75,83.83s0,0,0,0V84a0,0,0,0,1,0,0H23.07v1.5h2.05a0,0,0,0,1,0,0v.12a0,0,0,0,1,0,0H22.89a0,0,0,0,1,0,0V82.27a0,0,0,0,1,0,0h2.2a0,0,0,0,1,0,0l0,.11s0,0-.05,0h-2v1.4Z" transform="translate(-1.32 -4.21)"/><path class="cls-1" d="M27.69,82.23c.89,0,1.44.66,1.44,1.75s-.55,1.76-1.44,1.76H26.58s0,0,0,0V82.27a0,0,0,0,1,0,0Zm-.93,3.31h.93c.77,0,1.22-.58,1.22-1.56s-.45-1.55-1.22-1.55h-.93Z" transform="translate(-1.32 -4.21)"/><path class="cls-1" d="M30.8,84.74l-.4,1a0,0,0,0,1,0,0H30.2s0,0,0,0L31.31,83a5.62,5.62,0,0,0,.25-.72s0,0,.05,0h.14s0,0,.05,0c.06.22.16.48.25.72l1.14,2.71s0,0,0,0H33a0,0,0,0,1,0,0l-.4-1Zm1.67-.21-.58-1.37a3.47,3.47,0,0,1-.18-.55s-.05,0-.06,0a3.47,3.47,0,0,1-.18.55l-.58,1.37Z" transform="translate(-1.32 -4.21)"/><path class="cls-1" d="M35.68,82.23c.9,0,1.45.66,1.45,1.75s-.55,1.76-1.45,1.76H34.57a0,0,0,0,1,0,0V82.27a0,0,0,0,1,0,0Zm-.93,3.31h.93c.77,0,1.22-.58,1.22-1.56s-.45-1.55-1.22-1.55h-.93Z" transform="translate(-1.32 -4.21)"/><path class="cls-1" d="M40.43,83.83a0,0,0,0,1,0,0V84a0,0,0,0,1,0,0H38.75v1.5h2s.05,0,.05,0v.12s0,0-.05,0H38.57s0,0,0,0V82.27a0,0,0,0,1,0,0h2.19s0,0,0,0l0,.11a0,0,0,0,1,0,0h-2v1.4Z" transform="translate(-1.32 -4.21)"/><path class="cls-1" d="M45.11,82.23c.89,0,1.44.66,1.44,1.75s-.55,1.76-1.44,1.76H44s0,0,0,0V82.27a0,0,0,0,1,0,0Zm-.93,3.31h.93c.77,0,1.22-.58,1.22-1.56s-.45-1.55-1.22-1.55h-.93Z" transform="translate(-1.32 -4.21)"/><path class="cls-1" d="M49.85,83.83s0,0,0,0V84a0,0,0,0,1,0,0H48.17v1.5h2a0,0,0,0,1,0,0v.12a0,0,0,0,1,0,0H48a0,0,0,0,1,0,0V82.27a0,0,0,0,1,0,0h2.2a0,0,0,0,1,0,0l0,.11s0,0,0,0h-2v1.4Z" transform="translate(-1.32 -4.21)"/><path class="cls-1" d="M53.78,84.74l-.4,1a.05.05,0,0,1-.05,0h-.15s0,0,0,0L54.28,83c.1-.23.19-.5.26-.72a0,0,0,0,1,0,0h.15a0,0,0,0,1,0,0c.06.22.16.48.25.72l1.15,2.71s0,0,0,0H56a.06.06,0,0,1-.06,0l-.4-1Zm1.66-.21-.57-1.37a3.63,3.63,0,0,1-.19-.55s0,0,0,0a3.63,3.63,0,0,1-.19.55l-.57,1.37Z" transform="translate(-1.32 -4.21)"/><path class="cls-1" d="M58.66,82.23c.89,0,1.44.66,1.44,1.75s-.55,1.76-1.44,1.76H57.55s0,0,0,0V82.27a0,0,0,0,1,0,0Zm-.93,3.31h.93c.77,0,1.22-.58,1.22-1.56s-.45-1.55-1.22-1.55h-.93Z" transform="translate(-1.32 -4.21)"/><path class="cls-1" d="M63,85a5,5,0,0,0-.24.75s0,0,0,0h-.13s0,0,0,0a5,5,0,0,0-.24-.75l-1.13-2.68s0,0,0,0h.15a.05.05,0,0,1,.05,0l1.07,2.56a2.59,2.59,0,0,1,.16.51s.05,0,.05,0a2.59,2.59,0,0,1,.16-.51l1.08-2.56a0,0,0,0,1,.05,0h.14s0,0,0,0Z" transform="translate(-1.32 -4.21)"/><path class="cls-1" d="M68,84c0,1.12-.54,1.81-1.45,1.81S65.13,85.1,65.13,84s.55-1.8,1.45-1.8S68,82.87,68,84Zm-2.67,0c0,1,.45,1.6,1.22,1.6S67.81,85,67.81,84s-.45-1.59-1.23-1.59S65.36,83,65.36,84Z" transform="translate(-1.32 -4.21)"/><path class="cls-1" d="M71.86,85.47a.05.05,0,0,1,0,0l0,0-.34.12a1.82,1.82,0,0,1-.73.13c-.91,0-1.45-.69-1.45-1.81s.54-1.8,1.45-1.8a1.9,1.9,0,0,1,.74.13l.2.08a0,0,0,0,1,0,0l0,.12a0,0,0,0,1-.06,0l-.2-.07a1.76,1.76,0,0,0-.66-.12c-.78,0-1.22.6-1.22,1.59s.44,1.6,1.22,1.6a1.93,1.93,0,0,0,.65-.11l.28-.1V84.28h-.75a0,0,0,0,1,0,0l0-.12s0,0,0,0h.86s0,0,0,0Z" transform="translate(-1.32 -4.21)"/><path class="cls-1" d="M73.76,84.74l-.4,1a.05.05,0,0,1,0,0h-.15s0,0,0,0L74.26,83a5.62,5.62,0,0,0,.25-.72s0,0,0,0h.14s0,0,0,0c.06.22.16.48.25.72l1.14,2.71s0,0,0,0H76a.05.05,0,0,1,0,0l-.4-1Zm1.66-.21-.58-1.37a3.47,3.47,0,0,1-.18-.55s0,0,0,0a5.23,5.23,0,0,1-.19.55l-.57,1.37Z" transform="translate(-1.32 -4.21)"/><path class="cls-1" d="M78.64,82.23c.89,0,1.44.66,1.44,1.75s-.55,1.76-1.44,1.76H77.53s0,0,0,0V82.27a0,0,0,0,1,0,0Zm-.93,3.31h.93c.77,0,1.22-.58,1.22-1.56s-.45-1.55-1.22-1.55h-.93Z" transform="translate(-1.32 -4.21)"/><path class="cls-1" d="M84.21,84c0,1.12-.55,1.81-1.45,1.81S81.31,85.1,81.31,84s.55-1.8,1.45-1.8S84.21,82.87,84.21,84Zm-2.68,0c0,1,.45,1.6,1.23,1.6S84,85,84,84s-.45-1.59-1.22-1.59S81.53,83,81.53,84Z" transform="translate(-1.32 -4.21)"/><path class="cls-1" d="M86.21,83.92c-.52-.2-.72-.49-.72-.88,0-.54.43-.86,1.07-.86a2.63,2.63,0,0,1,.77.12l.24.08s0,0,0,.05l0,.12s0,0,0,0l-.23-.07a2.35,2.35,0,0,0-.71-.11c-.5,0-.84.25-.84.65,0,.24.09.5.58.68l.77.29c.43.16.73.39.73.84s-.52.94-1.2.94a2.35,2.35,0,0,1-1-.18l-.17-.06a0,0,0,0,1,0,0l0-.12a0,0,0,0,1,.06,0l.16.07a2.28,2.28,0,0,0,.89.16c.53,0,1-.27,1-.73s-.29-.53-.58-.64Z" transform="translate(-1.32 -4.21)"/></g><g id="Barra"><rect class="cls-2" y="74.79" width="95.37" height="0.48"/></g><g id="Nunes_Faggion" data-name="Nunes Faggion"><path class="cls-1" d="M8.88,76.73c0,.06,0,.09-.1.09h-.4a.14.14,0,0,1-.13-.07c-.17-.34-.46-.82-.7-1.19l-3.93-5.5a3.74,3.74,0,0,1-.38-.67c0-.09-.16-.06-.13,0a6.56,6.56,0,0,1,.07.89v6.4c0,.06,0,.09-.1.09H2.74c-.06,0-.1,0-.1-.09V68.57a.09.09,0,0,1,.1-.1h.42a.14.14,0,0,1,.12.07A7.79,7.79,0,0,0,4,69.71l3.93,5.5a4,4,0,0,1,.39.68c0,.1.15.07.12,0a7,7,0,0,1-.06-.9V68.57a.09.09,0,0,1,.1-.1h.33a.09.09,0,0,1,.1.1Z" transform="translate(-1.32 -4.21)"/><path class="cls-1" d="M17.34,73.58c0,2.12-1.11,3.37-3,3.37s-3-1.25-3-3.37v-5a.09.09,0,0,1,.1-.1h.33c.06,0,.09,0,.09.1v5c0,1.8.91,2.85,2.51,2.85s2.52-1.05,2.52-2.85v-5a.09.09,0,0,1,.1-.1h.32c.06,0,.09,0,.09.1Z" transform="translate(-1.32 -4.21)"/><path class="cls-1" d="M26,76.73a.08.08,0,0,1-.09.09h-.41a.11.11,0,0,1-.12-.07c-.17-.34-.47-.82-.71-1.19l-3.93-5.5a4.31,4.31,0,0,1-.37-.67c0-.09-.16-.06-.14,0a5.26,5.26,0,0,1,.07.89v6.4a.08.08,0,0,1-.09.09h-.35a.08.08,0,0,1-.09-.09V68.57c0-.06,0-.1.09-.1h.42a.13.13,0,0,1,.12.07,7.1,7.1,0,0,0,.7,1.17L25,75.21a4.16,4.16,0,0,1,.4.68c0,.1.14.07.12,0a5.53,5.53,0,0,1-.06-.9V68.57a.09.09,0,0,1,.1-.1h.33c.06,0,.09,0,.09.1Z" transform="translate(-1.32 -4.21)"/><path class="cls-1" d="M33,72.29c.06,0,.1,0,.1.09v.3a.09.09,0,0,1-.1.1H29v3.55h4.87a.09.09,0,0,1,.1.1v.3c0,.06,0,.09-.1.09h-5.3a.08.08,0,0,1-.09-.09V68.57c0-.06,0-.1.09-.1h5.23c.06,0,.09,0,.07.11l-.07.28c0,.06-.05.09-.11.09H29v3.34Z" transform="translate(-1.32 -4.21)"/><path class="cls-1" d="M37.4,72.48c-1.25-.47-1.7-1.15-1.7-2.09,0-1.28,1-2,2.54-2a6.21,6.21,0,0,1,1.81.29l.57.19a.08.08,0,0,1,.07.12l-.1.28c0,.06-.06.08-.12.06l-.55-.18a5.52,5.52,0,0,0-1.68-.26c-1.21,0-2,.6-2,1.54,0,.59.21,1.2,1.37,1.63l1.85.69c1,.38,1.74.93,1.74,2,0,1.4-1.25,2.24-2.88,2.24A6,6,0,0,1,36,76.52l-.4-.15a.08.08,0,0,1,0-.12l.09-.29a.1.1,0,0,1,.14-.07l.39.16a5.47,5.47,0,0,0,2.1.38c1.28,0,2.34-.63,2.34-1.72,0-.81-.67-1.26-1.37-1.53Z" transform="translate(-1.32 -4.21)"/><path class="cls-1" d="M50.82,72.53c.06,0,.09,0,.09.1v.29c0,.06,0,.1-.09.1h-4v3.71a.08.08,0,0,1-.09.09h-.33c-.07,0-.1,0-.1-.09V68.57a.09.09,0,0,1,.1-.1H51.5c.06,0,.1,0,.07.11l-.08.28a.1.1,0,0,1-.11.09H46.8v3.58Z" transform="translate(-1.32 -4.21)"/><path class="cls-1" d="M53.67,74.44l-1,2.31a.11.11,0,0,1-.12.07h-.35c-.08,0-.1,0-.08-.11l2.7-6.43a12.6,12.6,0,0,0,.6-1.72c0-.06,0-.09.11-.09h.35c.06,0,.09,0,.11.09a17.74,17.74,0,0,0,.6,1.72l2.71,6.43c0,.06,0,.11-.07.11h-.36a.12.12,0,0,1-.12-.07l-.95-2.31Zm3.95-.5-1.37-3.26a7.15,7.15,0,0,1-.43-1.32c0-.08-.12-.08-.14,0a8.13,8.13,0,0,1-.44,1.32l-1.37,3.26Z" transform="translate(-1.32 -4.21)"/><path class="cls-1" d="M66.77,76.18a.11.11,0,0,1-.08.11l-.11,0-.8.3A4.37,4.37,0,0,1,64,77c-2.15,0-3.45-1.64-3.45-4.31s1.3-4.29,3.45-4.29a4.46,4.46,0,0,1,1.76.32l.48.18a.09.09,0,0,1,0,.12l-.1.28c0,.06-.07.09-.14.06l-.47-.17A4.15,4.15,0,0,0,64,68.85c-1.85,0-2.91,1.42-2.91,3.79s1.06,3.79,2.91,3.79a4.54,4.54,0,0,0,1.55-.25l.66-.25V73.34H64.48c-.06,0-.1,0-.07-.11l.08-.28a.1.1,0,0,1,.11-.09h2.07a.09.09,0,0,1,.1.1Z" transform="translate(-1.32 -4.21)"/><path class="cls-1" d="M74.88,76.18a.11.11,0,0,1-.08.11l-.11,0-.8.3a4.37,4.37,0,0,1-1.74.32C70,77,68.7,75.31,68.7,72.64s1.3-4.29,3.45-4.29a4.46,4.46,0,0,1,1.76.32l.48.18a.09.09,0,0,1,0,.12l-.1.28a.09.09,0,0,1-.13.06l-.48-.17a4.11,4.11,0,0,0-1.58-.29c-1.85,0-2.91,1.42-2.91,3.79s1.06,3.79,2.91,3.79a4.54,4.54,0,0,0,1.55-.25l.66-.25V73.34H72.59c-.06,0-.1,0-.07-.11L72.6,73c0-.06.05-.09.11-.09h2.07a.09.09,0,0,1,.1.1Z" transform="translate(-1.32 -4.21)"/><path class="cls-1" d="M77.75,76.73a.08.08,0,0,1-.09.09h-.33c-.07,0-.1,0-.1-.09V68.57a.09.09,0,0,1,.1-.1h.33c.06,0,.09,0,.09.1Z" transform="translate(-1.32 -4.21)"/><path class="cls-1" d="M86.76,72.64c0,2.67-1.3,4.31-3.45,4.31s-3.45-1.64-3.45-4.31,1.31-4.29,3.45-4.29S86.76,70,86.76,72.64Zm-6.36,0c0,2.39,1.06,3.79,2.91,3.79s2.92-1.4,2.92-3.79-1.08-3.79-2.92-3.79S80.4,70.27,80.4,72.64Z" transform="translate(-1.32 -4.21)"/><path class="cls-1" d="M95.11,76.73c0,.06,0,.09-.1.09h-.4a.11.11,0,0,1-.12-.07c-.17-.34-.47-.82-.71-1.19l-3.93-5.5a3.74,3.74,0,0,1-.38-.67c0-.09-.16-.06-.13,0a5.26,5.26,0,0,1,.07.89v6.4c0,.06,0,.09-.1.09H89c-.06,0-.1,0-.1-.09V68.57a.09.09,0,0,1,.1-.1h.42a.13.13,0,0,1,.12.07,7.1,7.1,0,0,0,.7,1.17l3.92,5.5a4,4,0,0,1,.39.68c0,.1.15.07.13,0a5.53,5.53,0,0,1-.06-.9V68.57c0-.06,0-.1.09-.1H95a.09.09,0,0,1,.1.1Z" transform="translate(-1.32 -4.21)"/></g><rect id="Forma" class="cls-3" x="25.31" width="44.75" height="58.91"/><g id="MS"><g id="S"><path class="cls-2" d="M66.92,56c0-6.66-12-5.33-12-13.65,0-3.33,3-6.33,7.33-6.33,3.66,0,6.32,2.67,6.32,4.33a2.33,2.33,0,1,1-2.33-2.33,3.33,3.33,0,0,1,.83.17,7.24,7.24,0,0,0-4.82-1.83c-3,0-5,2-5,4,0,6.66,12,5.33,12,13.65,0,3.66-3,6.66-7.66,6.66-5,0-7.66-4.5-7.66-4.5v-.46c.14.2,2.77,4.62,7.66,4.62C64.92,60.36,66.92,58.37,66.92,56Z" transform="translate(-1.32 -4.21)"/></g><g id="M"><path class="cls-2" d="M45.76,47.87l-2.29,4.75L36,37.15H29.32v.33H32V60.11H29.32v.34H35v-.34H32.31V37.81l9,18.64H42l4-8.32Z" transform="translate(-1.32 -4.21)"/><path class="cls-2" d="M37.87,47.87l2.3,4.75,7.49-15.47h6.65v.33H51.65V60.11h2.66v.34H48.65v-.34h2.67V37.81l-9,18.64h-.67l-4-8.32Z" transform="translate(-1.32 -4.21)"/><rect class="cls-2" x="30.29" y="33.27" width="1.03" height="22.64"/><rect class="cls-2" x="49.75" y="33.27" width="1.03" height="22.64"/></g></g></g></svg>